<svg width="190" height="26" viewBox="0 0 190 26" fill="none" xmlns="http://www.w3.org/2000/svg">
<path fill-rule="evenodd" clip-rule="evenodd" d="M0.482224 25.9393L11.5537 0.618652H17.0761L8.22637 20.8661H30.304L28.0908 25.9393H0.482224ZM66.0349 9.1518C65.8458 9.58258 65.6926 9.93644 65.5384 10.2897L65.331 10.759L58.7 25.9393H52.0545H38.2962C36.9591 25.9393 35.6202 25.9764 34.2883 25.9764C32.7032 25.9764 31.9093 25.7387 31.828 25.2258C31.7539 24.7166 32.2628 23.2602 33.3094 20.8661L34.4273 18.3097C35.5453 15.7541 36.4825 14.3043 37.2104 13.9065C37.9932 13.473 40.1827 13.2761 43.8285 13.2761H55.9522L53.7583 18.3097H41.6279C40.815 18.3097 40.3019 18.3899 40.1421 18.467C39.8925 18.6225 39.6648 18.9741 39.3858 19.6044L38.9919 20.5124C38.9175 20.786 39.0789 20.9015 39.4633 20.9015C39.8546 20.9015 40.2118 20.8661 40.5124 20.8661H55.4321L57.6471 15.795L58.5055 13.8299C59.1615 12.3325 59.1547 11.4677 58.4994 11.1941C57.8459 10.9201 55.5148 10.759 51.5292 10.759H37.7283L39.9614 5.65003H62.0768C64.6043 5.65003 66.1433 5.76799 66.6142 5.96408C67.0844 6.16229 67.1081 6.79011 66.6426 7.85445C66.4378 8.32628 66.2453 8.754 66.0349 9.1518ZM96.6854 9.1518C96.3044 9.93645 95.9913 10.6439 95.7331 11.2351L89.3028 25.9393H83.813L89.9033 12.0171C90.1647 11.4328 90.24 11.0417 90.1685 10.9201C90.0678 10.7589 89.7114 10.6822 89.0729 10.6822C88.6871 10.6822 88.0402 10.6822 87.0418 10.7223C86.0293 10.759 85.3108 10.759 84.876 10.759L78.2455 25.9393H72.7158L79.3493 10.759H73.8604L67.2264 25.9393H61.704L70.5667 5.65003H92.427H94.1441C94.7051 5.65003 95.2294 5.61343 95.6996 5.61343C96.8653 5.61343 97.5412 5.72664 97.7082 5.92957C97.9002 6.16229 97.7772 6.75223 97.3785 7.65925C97.2906 7.85442 97.0728 8.36365 96.6854 9.1518ZM127.254 9.1518C127.062 9.58258 126.903 9.93644 126.752 10.2897L126.548 10.759L119.919 25.9393H113.267H99.5068C98.171 25.9393 96.8339 25.9764 95.5032 25.9764C93.9125 25.9764 93.1213 25.7387 93.0429 25.2258C92.9723 24.7166 93.4815 23.2602 94.5268 20.8661L95.6375 18.3097C96.7572 15.7541 97.6902 14.3043 98.4225 13.9065C99.2133 13.473 101.398 13.2761 105.041 13.2761H117.171L114.974 18.3097H102.842C102.027 18.3097 101.514 18.3899 101.361 18.467C101.111 18.6225 100.876 18.9741 100.602 19.6044L100.205 20.5124C100.128 20.786 100.292 20.9015 100.674 20.9015C101.065 20.9015 101.421 20.8661 101.726 20.8661H116.639L118.862 15.795L119.717 13.8299C120.374 12.3325 120.369 11.4677 119.712 11.1941C119.056 10.9201 116.73 10.759 112.734 10.759H98.934L101.174 5.65003H123.297C125.822 5.65003 127.353 5.76799 127.832 5.96408C128.295 6.16229 128.33 6.79011 127.861 7.85445C127.651 8.32628 127.465 8.754 127.254 9.1518ZM156.996 11.1148C156.775 11.6307 156.53 12.1787 156.275 12.7695L156.051 13.2753H150.569L151.084 12.0969C151.353 11.4691 151.395 11.0769 151.254 10.9201C151.106 10.758 150.544 10.6814 149.559 10.6814C148.999 10.6814 147.97 10.6814 146.451 10.7237C144.939 10.758 143.907 10.758 143.303 10.758H135.078L128.445 25.9393H122.917L131.776 5.64961H145.536C147.475 5.64961 149.057 5.64959 150.399 5.61417C151.749 5.57328 153.004 5.53104 154.251 5.53104C156.611 5.53104 157.968 5.76768 158.33 6.20363C158.678 6.67545 158.482 7.81308 157.675 9.66146C157.473 10.1368 157.263 10.6021 156.996 11.1148ZM175.64 25.9393L177.856 20.8661C178.316 19.8024 178.29 19.0943 177.84 18.6638C177.483 18.3899 176.827 18.2313 175.796 18.2313C175.533 18.2313 175.15 18.2312 174.611 18.2723C174.044 18.3097 173.662 18.3097 173.443 18.3097H162.38L159.054 25.9393H153.522L164.564 0.658639L170.114 0.618652L164.564 13.3175H175.626C176.054 13.3175 176.468 13.3555 176.88 13.3955C177.33 13.4352 177.758 13.4352 178.19 13.4352C179.133 13.4352 179.879 13.2753 180.456 12.9633C181.202 12.5324 181.806 11.8219 182.275 10.758L184.511 5.65003H190L187.761 10.758C186.657 13.2752 184.968 14.888 182.663 15.5564C182.317 15.6776 181.801 15.7541 181.19 15.795C182.101 15.9524 182.745 16.1492 183.099 16.4247C184.193 17.2467 184.278 18.7406 183.344 20.8661L181.128 25.9393H175.64Z" fill="#1B1918"/>
</svg>
