<svg width="18" height="22" viewBox="0 0 18 22" fill="none" xmlns="http://www.w3.org/2000/svg">
<path d="M15.3493 15.5992L9.19849 21.75L3.04769 15.5992C1.8312 14.3827 1.00276 12.8328 0.667135 11.1454C0.331511 9.4581 0.503776 7.70913 1.16215 6.11969C1.82052 4.53026 2.93542 3.17175 4.36588 2.21595C5.79634 1.26015 7.4781 0.75 9.19849 0.75C10.9189 0.75 12.6006 1.26015 14.0311 2.21595C15.4616 3.17175 16.5765 4.53026 17.2348 6.11969C17.8932 7.70913 18.0655 9.4581 17.7298 11.1454C17.3942 12.8328 16.5658 14.3827 15.3493 15.5992ZM9.19849 11.3814C9.71115 11.3814 10.2028 11.1778 10.5653 10.8152C10.9278 10.4527 11.1315 9.96107 11.1315 9.44841C11.1315 8.93575 10.9278 8.44408 10.5653 8.08157C10.2028 7.71907 9.71115 7.51541 9.19849 7.51541C8.68583 7.51541 8.19416 7.71907 7.83165 8.08157C7.46915 8.44408 7.26549 8.93575 7.26549 9.44841C7.26549 9.96107 7.46915 10.4527 7.83165 10.8152C8.19416 11.1778 8.68583 11.3814 9.19849 11.3814Z" fill="#E5261E"/>
</svg>
